# xmcd
#
# Track frame offsets: 
#        150
#        82050
#        98020
#        122295
#        133890
#        153685
#        163350
#        176030
#        207007
#        213805
#        244580
#        257600
#        269260
#        278595
#
# Disc length: 3962 seconds
#
# Revision: 0
# Processed by: cddbd v1.5.2PL0 Copyright (c) Steve Scherf et al.
# Submitted via: ExactAudioCopy v0.95b4
#
DISCID=c20f780e
DTITLE=Tchaikovsky - Collection - CD3
DYEAR=2003
DGENRE=Classical
TTITLE0=Romeo and Julia (Wolpert,Berl.RO) - Fantasieouvertüre
TTITLE1=Dornröschen, Balletsuite op. 66a (Wolpert,Berl.RO) - Introduct
TTITLE1=ion - La Fée des Lila
TTITLE2=Dornröschen, Balletsuite op. 66a (Wolpert,Berl.RO) - Pas d'act
TTITLE2=ion
TTITLE3=Dornröschen, Balletsuite op. 66a (Wolpert,Berl.RO) - Panorama
TTITLE4=Dornröschen, Balletsuite op. 66a (Wolpert,Berl.RO) - Valse
TTITLE5=Dornröschen, Balletsuite op. 66a (Wolpert,Berl.RO) - Apothése
TTITLE6=Schwanensee, Balletsuite op. 20 (Wolpert,Berl.RO) - Scène
TTITLE7=Schwanensee, Balletsuite op. 20 (Wolpert,Berl.RO) - Valse
TTITLE8=Schwanensee, Balletsuite op. 20 (Wolpert,Berl.RO) - Tanz der S
TTITLE8=chwäne
TTITLE9=Schwanensee, Balletsuite op. 20 (Wolpert,Berl.RO) - Pas d'acti
TTITLE9=on
TTITLE10=Schwanensee, Balletsuite op. 20 (Wolpert,Berl.RO) - Danse hon
TTITLE10=groise - Czardas
TTITLE11=Schwanensee, Balletsuite op. 20 (Wolpert,Berl.RO) - Danse esp
TTITLE11=agnole
TTITLE12=Schwanensee, Balletsuite op. 20 (Wolpert,Berl.RO) - Danse nap
TTITLE12=olitaine
TTITLE13=Schwanensee, Balletsuite op. 20 (Wolpert,Berl.RO) - Mazurka
EXTD=
EXTT0=
EXTT1=
EXTT2=
EXTT3=
EXTT4=
EXTT5=
EXTT6=
EXTT7=
EXTT8=
EXTT9=
EXTT10=
EXTT11=
EXTT12=
EXTT13=
PLAYORDER=
